# xmcd
#
# Track frame offsets:
# 150
# 15209
# 35356
# 47340
# 60510
# 73914
# 87868
# 104025
# 124178
# 139361
# 159008
# 175682
# 189125
# 204640
# 221810
# 239693
# 257228
# 270224
# 283726
# 298131
# 314518
#
# Disc length: 4422 seconds
#
# Revision: 0
# Processed by: cddbd v1.5.1PL0 Copyright (c) Steve Scherf et al.
# Submitted via: Audion 3.0.2 (http://www.panic.com/audion/)
#
DISCID=36114415
DTITLE=Dao De Jing - Disk 1
DYEAR=1900
DGENRE=
TTITLE0=Preface and Ackknowledgments
TTITLE1=Preface and Ackknowledgments
TTITLE2=Historical Introduction
TTITLE3=Historical Introduction
TTITLE4=Historical Introduction
TTITLE5=Historical Introduction
TTITLE6=Historical Introduction
TTITLE7=Philosophical Introduction
TTITLE8=Philosophical Introduction
TTITLE9=Philosophical Introduction
TTITLE10=Philosophical Introduction
TTITLE11=Philosophical Introduction
TTITLE12=Philosophical Introduction
TTITLE13=Philosophical Introduction
TTITLE14=Philosophical Introduction
TTITLE15=Philosophical Introduction
TTITLE16=Philosophical Introduction
TTITLE17=Philosophical Introduction
TTITLE18=Philosophical Introduction
TTITLE19=Philosophical Introduction
TTITLE20=Philosophical Introduction
EXTD=
EXTT0=
EXTT1=
EXTT2=
EXTT3=
EXTT4=
EXTT5=
EXTT6=
EXTT7=
EXTT8=
EXTT9=
EXTT10=
EXTT11=
EXTT12=
EXTT13=
EXTT14=
EXTT15=
EXTT16=
EXTT17=
EXTT18=
EXTT19=
EXTT20=
PLAYORDER=
